HIERARCHY
ROOT joint_Root
{
	OFFSET 0.0 0.0 0.0
	CHANNELS 6 Xposition Yposition Zposition Zrotation Xrotation Yrotation 
	JOINT Hips
	{
		OFFSET -0.726466 93.3139 -2.00062
		CHANNELS 6 Xposition Yposition Zposition Zrotation Xrotation Yrotation 
		JOINT Spine
		{
			OFFSET 15.7357 0.0 0.0
			CHANNELS 6 Xposition Yposition Zposition Zrotation Xrotation Yrotation 
			JOINT Chest
			{
				OFFSET 8.98455 -0.406207 0.0
				CHANNELS 6 Xposition Yposition Zposition Zrotation Xrotation Yrotation 
				JOINT Neck
				{
					OFFSET 16.3773 0.0 0.0
					CHANNELS 6 Xposition Yposition Zposition Zrotation Xrotation Yrotation 
					JOINT Head
					{
						OFFSET 6.45672 0.0 0.0
						CHANNELS 6 Xposition Yposition Zposition Zrotation Xrotation Yrotation 
						End Site
						{
							OFFSET 0.0 0.0 0.0
						}
					}
				}
				JOINT Shoulder_L
				{
					OFFSET 12.9942 -0.242716 4.98039
					CHANNELS 6 Xposition Yposition Zposition Zrotation Xrotation Yrotation 
					JOINT UpperArm_L
					{
						OFFSET 5.34809 0.0 0.0
						CHANNELS 6 Xposition Yposition Zposition Zrotation Xrotation Yrotation 
						JOINT LowerArm_L
						{
							OFFSET 24.3286 1.87007e-05 0.0
							CHANNELS 6 Xposition Yposition Zposition Zrotation Xrotation Yrotation 
							JOINT Hand_L
							{
								OFFSET 22.2916 0.0 0.0
								CHANNELS 6 Xposition Yposition Zposition Zrotation Xrotation Yrotation 
								End Site
								{
									OFFSET 0.0 0.0 0.0
								}
							}
						}
					}
				}
				JOINT Shoulder_R
				{
					OFFSET 12.9945 -0.242716 -4.98039
					CHANNELS 6 Xposition Yposition Zposition Zrotation Xrotation Yrotation 
					JOINT UpperArm_R
					{
						OFFSET -5.34813 0.0 0.0
						CHANNELS 6 Xposition Yposition Zposition Zrotation Xrotation Yrotation 
						JOINT LowerArm_R
						{
							OFFSET -24.3289 0.000322201 0.0
							CHANNELS 6 Xposition Yposition Zposition Zrotation Xrotation Yrotation 
							JOINT Hand_R
							{
								OFFSET -22.2915 -0.000108084 0.0
								CHANNELS 6 Xposition Yposition Zposition Zrotation Xrotation Yrotation 
								End Site
								{
									OFFSET 0.0 0.0 0.0
								}
							}
						}
					}
				}
			}
		}
		JOINT UpperLeg_L
		{
			OFFSET -2.19248 -6.46944 0.0
			CHANNELS 6 Xposition Yposition Zposition Zrotation Xrotation Yrotation 
			JOINT LowerLeg_L
			{
				OFFSET 39.0811 0.0 -1.23785e-05
				CHANNELS 6 Xposition Yposition Zposition Zrotation Xrotation Yrotation 
				JOINT Foot_L
				{
					OFFSET 40.9854 0.0 -1.26872e-05
					CHANNELS 6 Xposition Yposition Zposition Zrotation Xrotation Yrotation 
					JOINT Toes_L
					{
						OFFSET 11.7543 0.0 0.0
						CHANNELS 6 Xposition Yposition Zposition Zrotation Xrotation Yrotation 
						End Site
						{
							OFFSET 0.0 0.0 0.0
						}
					}
				}
			}
		}
		JOINT UpperLeg_R
		{
			OFFSET -2.19251 6.46944 0.0
			CHANNELS 6 Xposition Yposition Zposition Zrotation Xrotation Yrotation 
			JOINT LowerLeg_R
			{
				OFFSET -39.0811 -0.00228153 -0.0401928
				CHANNELS 6 Xposition Yposition Zposition Zrotation Xrotation Yrotation 
				JOINT Foot_R
				{
					OFFSET -40.9854 0.0 0.0
					CHANNELS 6 Xposition Yposition Zposition Zrotation Xrotation Yrotation 
					JOINT Toes_R
					{
						OFFSET -11.7543 0.0 0.0
						CHANNELS 6 Xposition Yposition Zposition Zrotation Xrotation Yrotation 
						End Site
						{
							OFFSET 0.0 0.0 0.0
						}
					}
				}
			}
		}
	}
}
MOTION
Frames:	6
Frame Time:	0.0333333
0.000000 0.000000 0.000000 0.000000 0.000000 -0.000000 -1.811670 92.167100 -2.434730 87.620400 -1.784130 4.496910 15.735700 0.000005 -0.000001 77.252200 88.316900 -76.233600 8.984550 -0.406207 -0.000000 -4.474670 -0.850917 2.005220 16.377300 -0.000001 -0.000001 -5.768330 -3.249760 1.918860 6.456720 -0.000001 -0.000000 -3.505690 -2.198520 -1.536520 12.994200 -0.242716 4.980390 -85.200400 -11.597400 -67.331300 5.348090 -0.000007 -0.000001 -66.231800 -55.554700 -99.265100 24.328600 0.000019 0.000005 3.393300 2.057760 -58.801500 22.291600 -0.000001 0.000005 18.031900 5.603160 -11.533100 12.994500 -0.242716 -4.980390 92.795300 -6.398040 -66.338900 -5.348130 -0.000001 -0.000004 -59.998600 -52.400900 -112.977000 -24.328900 0.000322 -0.000009 4.128660 3.434660 -50.316600 -22.291500 -0.000108 -0.000004 21.012400 5.535720 -8.049580 -2.192480 -6.469440 -0.000000 -168.243000 -15.023200 -1.035740 39.081100 -0.000007 -0.000012 -0.160837 0.429838 20.515100 40.985400 -0.000006 -0.000013 -6.291480 3.438340 -63.006600 11.754300 -0.000000 0.000003 -0.000021 -0.000261 -16.587800 -2.192510 6.469440 -0.000001 175.567000 18.699700 179.522000 -39.081100 -0.002282 -0.040193 0.010260 -0.018999 20.064100 -40.985400 0.000008 0.000006 -0.651825 1.741590 -63.627500 -11.754300 -0.000006 -0.000006 -0.008213 -0.089761 -20.228400
0.000000 0.000000 0.000000 0.000000 0.000000 -0.000000 -1.819280 92.170400 -2.430040 87.594200 -1.744880 4.435590 15.735700 0.000005 -0.000001 77.131800 88.301800 -76.103500 8.984550 -0.406207 -0.000000 -4.446540 -0.865337 2.024340 16.377300 -0.000001 -0.000001 -5.691980 -3.281430 1.951670 6.456720 -0.000001 -0.000000 -3.410100 -2.240550 -1.552370 12.994200 -0.242716 4.980390 -85.187100 -11.618000 -67.310100 5.348090 -0.000007 -0.000001 -66.305000 -55.622600 -99.180900 24.328600 0.000019 0.000005 3.375770 2.039950 -58.890200 22.291600 -0.000001 0.000005 18.007100 5.602750 -11.507600 12.994500 -0.242716 -4.980390 92.790700 -6.377510 -66.306000 -5.348130 -0.000001 -0.000004 -59.878300 -52.424200 -112.881000 -24.328900 0.000322 -0.000009 4.155080 3.441790 -50.438400 -22.291500 -0.000108 -0.000004 21.006900 5.533810 -7.963190 -2.192480 -6.469440 -0.000000 -168.216000 -15.038700 -1.084320 39.081100 -0.000007 -0.000012 -0.161438 0.431993 20.491200 40.985400 -0.000006 -0.000013 -6.296600 3.488370 -62.993600 11.754300 -0.000000 0.000003 -0.000021 -0.000262 -16.587800 -2.192510 6.469440 -0.000001 175.611000 18.760900 179.489000 -39.081100 -0.002282 -0.040193 0.009934 -0.018152 20.015500 -40.985400 0.000008 0.000006 -0.656149 1.735520 -63.604100 -11.754300 -0.000006 -0.000006 -0.008198 -0.089642 -20.223600
0.000000 0.000000 0.000000 0.000000 0.000000 -0.000000 -1.821100 92.173400 -2.416530 87.582100 -1.727160 4.374690 15.735700 0.000005 -0.000001 77.518500 88.284400 -76.489100 8.984550 -0.406207 -0.000000 -4.407670 -0.850278 2.027360 16.377300 -0.000001 -0.000001 -5.604890 -3.301780 1.958520 6.456720 -0.000001 -0.000000 -3.363950 -2.281790 -1.503850 12.994200 -0.242716 4.980390 -85.153100 -11.653700 -67.227600 5.348090 -0.000007 -0.000001 -66.410200 -55.603200 -99.211700 24.328600 0.000019 0.000005 3.284390 1.991410 -58.803200 22.291600 -0.000001 0.000005 18.044000 5.602680 -11.503400 12.994500 -0.242716 -4.980390 92.796300 -6.377110 -66.262600 -5.348130 -0.000001 -0.000004 -59.730900 -52.504100 -112.780000 -24.328900 0.000322 -0.000009 4.098000 3.397860 -50.409000 -22.291500 -0.000108 -0.000004 20.985000 5.534310 -7.986440 -2.192480 -6.469440 -0.000000 -168.220000 -15.112600 -1.157570 39.081100 -0.000007 -0.000012 -0.161125 0.431007 20.497600 40.985400 -0.000006 -0.000013 -6.284610 3.513520 -62.981400 11.754300 -0.000000 0.000003 -0.000023 -0.000284 -16.588700 -2.192510 6.469440 -0.000001 175.637000 18.792100 179.460000 -39.081100 -0.002282 -0.040193 0.009518 -0.017057 19.964800 -40.985400 0.000008 0.000006 -0.692632 1.768690 -63.585100 -11.754300 -0.000006 -0.000006 -0.008252 -0.090075 -20.241300
0.000000 0.000000 0.000000 0.000000 0.000000 -0.000000 -1.825500 92.180200 -2.418440 87.598400 -1.683950 4.324430 15.735700 0.000005 -0.000001 77.612200 88.256900 -76.584100 8.984550 -0.406207 -0.000000 -4.352670 -0.855981 2.024970 16.377300 -0.000001 -0.000001 -5.539040 -3.293070 1.992450 6.456720 -0.000001 -0.000000 -3.297450 -2.287100 -1.511080 12.994200 -0.242716 4.980390 -85.149300 -11.644000 -67.194800 5.348090 -0.000007 -0.000001 -66.413300 -55.664400 -99.170700 24.328600 0.000019 0.000005 3.332310 2.025270 -58.743800 22.291600 -0.000001 0.000005 17.962700 5.601430 -11.428100 12.994500 -0.242716 -4.980390 92.805300 -6.389070 -66.233700 -5.348130 -0.000001 -0.000004 -59.548500 -52.626900 -112.673000 -24.328900 0.000322 -0.000009 4.062640 3.373050 -50.370300 -22.291500 -0.000108 -0.000004 21.090600 5.533140 -7.934050 -2.192480 -6.469440 -0.000000 -168.245000 -15.079600 -1.176060 39.081100 -0.000007 -0.000012 -0.161458 0.433809 20.414800 40.985400 -0.000006 -0.000013 -6.292150 3.532370 -62.938800 11.754300 -0.000000 0.000003 -0.000022 -0.000271 -16.588200 -2.192510 6.469440 -0.000001 175.634000 18.860600 179.423000 -39.081100 -0.002282 -0.040193 0.008927 -0.015452 19.940700 -40.985400 0.000008 0.000006 -0.633308 1.773670 -63.575600 -11.754300 -0.000006 -0.000006 -0.007924 -0.087407 -20.132300
0.000000 0.000000 0.000000 0.000000 0.000000 -0.000000 -1.828540 92.187800 -2.417000 87.605200 -1.650550 4.282310 15.735700 0.000005 -0.000001 78.017000 88.222900 -76.996000 8.984550 -0.406207 -0.000000 -4.281180 -0.844644 2.011480 16.377300 -0.000001 -0.000001 -5.446900 -3.296540 1.989630 6.456720 -0.000001 -0.000000 -3.312860 -2.301310 -1.407860 12.994200 -0.242716 4.980390 -85.144100 -11.635600 -67.158000 5.348090 -0.000007 -0.000001 -66.309300 -55.744300 -99.068100 24.328600 0.000019 0.000005 3.210100 1.955880 -58.677700 22.291600 -0.000001 0.000005 18.029200 5.602850 -11.513900 12.994500 -0.242716 -4.980390 92.816100 -6.397190 -66.179000 -5.348130 -0.000001 -0.000004 -59.402400 -52.718100 -112.524000 -24.328900 0.000322 -0.000009 4.163090 3.457390 -50.365700 -22.291500 -0.000108 -0.000004 21.069600 5.534400 -7.990040 -2.192480 -6.469440 -0.000000 -168.269000 -15.113300 -1.207610 39.081100 -0.000007 -0.000012 -0.159101 0.428549 20.367900 40.985400 -0.000006 -0.000013 -6.281440 3.552630 -62.903300 11.754300 -0.000000 0.000003 -0.000018 -0.000233 -16.586700 -2.192510 6.469440 -0.000001 175.653000 18.882900 179.402000 -39.081100 -0.002282 -0.040193 0.011650 -0.022998 19.906700 -40.985400 0.000008 0.000006 -0.555697 1.753460 -63.571600 -11.754300 -0.000006 -0.000006 -0.008137 -0.089145 -20.203300
0.000000 0.000000 0.000000 0.000000 0.000000 -0.000000 -1.838770 92.192000 -2.421000 87.591600 -1.610120 4.214750 15.735700 0.000005 -0.000001 78.310100 88.197800 -77.284400 8.984550 -0.406207 -0.000000 -4.228220 -0.837088 2.021680 16.377300 -0.000001 -0.000001 -5.350290 -3.299280 1.991530 6.456720 -0.000001 -0.000000 -3.292300 -2.334340 -1.337120 12.994200 -0.242716 4.980390 -85.120400 -11.670700 -67.118600 5.348090 -0.000007 -0.000001 -66.230600 -55.803500 -98.829500 24.328600 0.000019 0.000005 3.300690 2.000400 -58.814900 22.291600 -0.000001 0.000005 17.925900 5.601170 -11.412600 12.994500 -0.242716 -4.980390 92.830000 -6.409980 -66.117200 -5.348130 -0.000001 -0.000004 -59.327500 -52.753000 -112.466000 -24.328900 0.000322 -0.000009 4.096770 3.407490 -50.320900 -22.291500 -0.000108 -0.000004 21.145900 5.532550 -7.908000 -2.192480 -6.469440 -0.000000 -168.267000 -15.083000 -1.271400 39.081100 -0.000007 -0.000012 -0.159496 0.430414 20.333100 40.985400 -0.000006 -0.000013 -6.289740 3.572270 -62.879500 11.754300 -0.000000 0.000003 -0.000023 -0.000287 -16.588800 -2.192510 6.469440 -0.000001 175.697000 18.882700 179.354000 -39.081100 -0.002282 -0.040193 0.012835 -0.026330 19.866100 -40.985400 0.000008 0.000006 -0.532294 1.725620 -63.558100 -11.754300 -0.000006 -0.000006 -0.008161 -0.089344 -20.211400
